# xmcd CD database file
#
# Track frame offsets:
#	150
#	43242
#	77595
#	123048
#	163244
#	208766
#
# Disc length: 3168 seconds
#
# Revision: 0
# Processed by: cddbd v1.5.1PL2 Copyright (c) Steve Scherf et al.
# Submitted via: CDex 1.51
#
DISCID=4b0c5e06
DTITLE=BaseSon - 『春恋＊乙女』プロローグドラマCD 【春が来る前に―。】
DYEAR=2006
DGENRE=Other
TTITLE0=羽未 『春よ、来い』
TTITLE1=如耶 『春の空、空の青』
TTITLE2=結衣佳 『雨のち晴れ。春の木漏れ日』
TTITLE3=ソーニャ 『春がきて、巣立ちの日に』
TTITLE4=莉流 『ある春のシアワセ？な一日』
TTITLE5=彩夏 『乙女の過ごす春休み』
EXTD=YEAR: 2006
EXTT0=
EXTT1=
EXTT2=
EXTT3=
EXTT4=
EXTT5=
PLAYORDER=
